<?xml version="1.0" standalone="no"?>
<!DOCTYPE svg PUBLIC "-//W3C//DTD SVG 20010904//EN"
 "http://www.w3.org/TR/2001/REC-SVG-20010904/DTD/svg10.dtd">
<svg version="1.0" xmlns="http://www.w3.org/2000/svg"
 width="124.000000pt" height="43.000000pt" viewBox="0 0 124.000000 43.000000"
 preserveAspectRatio="xMidYMid meet">

<g transform="translate(0.000000,43.000000) scale(0.100000,-0.100000)"
fill="#000000" stroke="none">
<path d="M0 215 l0 -215 215 0 215 0 0 215 0 215 -215 0 -215 0 0 -215z m62
128 c22 -50 33 -45 26 13 -6 48 6 42 27 -13 24 -65 35 -74 28 -25 -6 47 3 80
17 66 5 -5 10 -48 11 -94 1 -67 6 -95 24 -129 l22 -45 14 37 c7 20 16 37 21
37 4 0 9 43 10 95 3 100 19 132 28 55 l5 -45 20 45 20 45 3 -157 c1 -91 7
-158 12 -158 5 0 11 66 12 155 4 216 22 204 26 -16 l2 -170 -47 5 c-54 6 -83
32 -83 75 0 21 -4 17 -24 -24 l-23 -50 -21 45 -22 45 4 -47 c2 -27 1 -48 -3
-48 -4 0 -15 23 -26 51 -11 28 -23 53 -26 55 -4 2 -6 -19 -5 -48 1 -33 -3 -52
-12 -55 -9 -4 -12 14 -13 64 -1 97 -5 133 -18 146 -9 9 -12 -14 -10 -98 1 -77
-2 -110 -10 -110 -8 0 -12 51 -14 173 -1 94 -1 172 1 172 2 0 13 -21 24 -47z"/>
<path d="M110 245 c0 -22 32 -82 37 -69 4 11 -24 84 -32 84 -3 0 -5 -7 -5 -15z"/>
<path d="M296 234 c-10 -26 -7 -142 4 -149 6 -4 10 25 10 79 0 86 -3 100 -14
70z"/>
<path d="M471 368 c1 -43 3 -47 8 -23 l7 30 18 -27 c27 -41 36 -34 35 25 -2
51 -2 51 -8 12 l-6 -40 -23 38 c-13 20 -26 37 -28 37 -2 0 -3 -24 -3 -52z"/>
<path d="M560 370 l0 -50 33 1 c23 1 26 3 10 6 -27 5 -31 30 -5 36 16 4 16 5
0 6 -27 2 -23 39 5 44 16 3 13 5 -10 6 l-33 1 0 -50z"/>
<path d="M634 408 c2 -7 10 -30 17 -50 13 -40 26 -48 36 -22 5 15 7 15 15 0
15 -26 25 -19 42 31 19 55 19 53 6 53 -5 0 -10 -6 -10 -12 -1 -7 -7 -26 -16
-43 l-14 -30 4 45 c4 41 3 43 -10 26 -12 -17 -14 -18 -14 -3 0 9 -4 17 -10 17
-6 0 -6 -9 -1 -23 5 -13 5 -30 1 -37 -7 -11 -11 -8 -19 13 -6 16 -11 33 -11
38 0 5 -5 9 -11 9 -6 0 -8 -6 -5 -12z"/>
<path d="M472 220 c0 -45 2 -49 8 -25 6 25 8 27 14 13 11 -24 23 -22 32 5 7
20 9 19 15 -13 6 -30 6 -28 7 20 1 50 0 53 -13 36 -8 -10 -17 -24 -20 -30 -4
-8 -6 -8 -10 0 -3 6 -12 20 -20 30 -13 17 -14 14 -13 -36z"/>
<path d="M586 223 c-9 -25 -13 -49 -10 -52 8 -9 24 21 24 47 0 13 4 20 10 17
6 -3 10 -14 10 -23 0 -21 17 -48 24 -41 8 8 -24 99 -34 99 -4 0 -15 -21 -24
-47z"/>
<path d="M672 220 c0 -47 2 -50 7 -20 l6 35 20 -32 c11 -18 23 -33 27 -33 4 0
7 24 6 53 -1 40 -2 44 -5 17 l-5 -35 -29 35 -28 35 1 -55z"/>
<path d="M777 263 c-14 -14 -6 -45 13 -50 11 -3 20 -12 20 -20 0 -12 -7 -14
-27 -8 -21 5 -25 4 -17 -5 17 -17 58 -8 62 12 2 11 -6 22 -23 30 -27 12 -29
34 -1 32 9 -1 16 2 16 7 0 10 -34 12 -43 2z"/>
<path d="M861 256 c-7 -8 -11 -30 -9 -48 3 -29 6 -33 32 -33 37 0 53 25 40 62
-11 32 -44 42 -63 19z m49 -16 c14 -26 -4 -63 -28 -58 -21 4 -28 44 -12 64 17
19 27 18 40 -6z"/>
<path d="M952 235 c-2 -50 9 -68 39 -63 21 3 24 8 25 53 l2 50 -7 -45 c-4 -31
-11 -46 -23 -48 -17 -3 -22 7 -31 68 -3 15 -5 10 -5 -15z"/>
<path d="M1051 218 c0 -38 3 -47 9 -33 4 11 5 32 3 48 -4 21 -2 27 11 27 21 0
33 -29 16 -40 -9 -6 -9 -12 -1 -29 7 -11 13 -21 15 -21 1 0 2 21 2 48 -1 44
-3 47 -28 50 -28 3 -28 2 -27 -50z"/>
<path d="M1150 245 c-5 -14 -13 -38 -17 -53 -6 -24 -5 -26 10 -13 10 7 17 24
17 38 0 14 4 22 10 18 6 -4 10 -12 9 -18 -3 -16 11 -47 21 -47 5 0 1 23 -8 50
-18 56 -28 62 -42 25z"/>
<path d="M460 96 c0 -46 18 -76 45 -76 28 0 40 28 32 76 -4 26 -4 25 -6 -7 -1
-38 -22 -66 -41 -54 -5 3 -10 24 -10 46 0 21 -4 39 -10 39 -5 0 -10 -11 -10
-24z"/>
<path d="M561 68 c1 -29 4 -41 6 -25 2 15 7 27 11 27 3 0 16 -12 29 -27 l22
-28 -1 55 c0 47 -2 50 -7 20 l-6 -35 -20 33 c-11 17 -23 32 -27 32 -4 0 -7
-24 -7 -52z"/>
<path d="M663 70 c0 -30 2 -43 4 -28 2 16 2 40 0 55 -2 16 -4 3 -4 -27z"/>
<path d="M690 117 c0 -15 34 -97 40 -97 4 0 15 21 24 47 19 55 19 53 6 53 -5
0 -12 -16 -16 -35 -8 -45 -21 -45 -30 0 -3 19 -10 35 -15 35 -5 0 -9 -1 -9 -3z"/>
<path d="M790 70 c0 -48 1 -50 28 -49 21 1 22 3 6 6 -17 3 -21 11 -21 43 0 32
4 40 21 43 16 3 15 5 -6 6 -27 1 -28 -1 -28 -49z"/>
<path d="M860 70 c0 -27 5 -50 10 -50 6 0 10 20 10 45 0 25 5 45 10 45 16 0
24 -29 12 -43 -7 -8 -6 -17 2 -30 17 -23 29 -22 17 1 -7 13 -7 22 0 29 20 20
0 53 -32 53 -28 0 -29 -1 -29 -50z"/>
<path d="M957 113 c-14 -14 -6 -45 13 -50 11 -3 20 -12 20 -20 0 -12 -7 -14
-27 -8 -21 5 -25 4 -17 -5 17 -17 58 -8 62 12 2 11 -6 22 -23 30 -27 12 -29
34 -1 32 9 -1 16 2 16 7 0 10 -34 12 -43 2z"/>
<path d="M1033 70 c0 -30 2 -43 4 -28 2 16 2 40 0 55 -2 16 -4 3 -4 -27z"/>
<path d="M1073 108 c9 -7 18 -31 20 -53 l4 -40 1 47 c2 35 6 48 20 51 9 3 -1
5 -22 6 -34 1 -37 -1 -23 -11z"/>
<path d="M1146 105 c4 -11 12 -34 18 -51 l12 -32 10 32 c6 17 14 40 18 51 7
17 5 17 -11 -3 l-19 -24 -18 24 c-14 19 -16 20 -10 3z"/>
</g>
</svg>
