<svg xmlns="http://www.w3.org/2000/svg" version="1.1" xmlns:xlink="http://www.w3.org/1999/xlink" xmlns:svgjs="http://svgjs.dev/svgjs" width="1440" height="560" preserveAspectRatio="none" viewBox="0 0 1440 560"><g mask="url(&quot;#SvgjsMask1005&quot;)" fill="none"><path d="M601.86 430.36 a53.65 53.65 0 1 0 107.3 0 a53.65 53.65 0 1 0 -107.3 0z" stroke="rgba(147, 26, 35, 1)"></path><path d="M530.58 137.4a13.4 13.4 0 1 0-25.43 8.46z" stroke="rgba(147, 26, 35, 1)"></path><path d="M596.34 171.49a52.37 52.37 0 1 0 91.82-50.4z" stroke="rgba(147, 26, 35, 1)"></path><path d="M959.89 325.38 a50.93 50.93 0 1 0 101.86 0 a50.93 50.93 0 1 0 -101.86 0z" stroke="rgba(147, 26, 35, 1)"></path><path d="M523.05 348.55L525.4 348.55L525.4 350.9L523.05 350.9z" stroke="rgba(147, 26, 35, 1)"></path><path d="M718.76 256.58 a5.01 5.01 0 1 0 10.02 0 a5.01 5.01 0 1 0 -10.02 0z" stroke="rgba(147, 26, 35, 1)"></path><path d="M567.69 179.18a21.11 21.11 0 1 0-36.17 21.78z" fill="rgba(147, 26, 35, 1)"></path><path d="M1282.56 60.96L1306.61 60.96L1306.61 85.01L1282.56 85.01z" stroke="rgba(147, 26, 35, 1)"></path><path d="M175.17 373.71L194.03 373.71L194.03 392.57L175.17 392.57z" fill="rgba(147, 26, 35, 1)"></path><path d="M307.2 315.76a0.76 0.76 0 1 0 1.52-0.14z" stroke="rgba(147, 26, 35, 1)"></path><path d="M820.33 106.27L865.94 106.27L865.94 151.88L820.33 151.88z" fill="rgba(147, 26, 35, 1)"></path><path d="M1303.09 353.58a46.92 46.92 0 1 0 27.07 89.86z" fill="rgba(147, 26, 35, 1)"></path><path d="M1108.28 256.3L1154.56 256.3L1154.56 302.58L1108.28 302.58z" stroke="rgba(147, 26, 35, 1)"></path><path d="M49.1 316.33a21.99 21.99 0 1 0 36.96 23.83z" stroke="rgba(147, 26, 35, 1)"></path><path d="M829.38 433.3L850.58 433.3L850.58 449.68L829.38 449.68z" stroke="rgba(147, 26, 35, 1)"></path><path d="M177.77 62.02L208.36 62.02L208.36 92.61L177.77 92.61z" stroke="rgba(147, 26, 35, 1)"></path><path d="M996.47 44.58L1024.04 44.58L1024.04 70.68L996.47 70.68z" stroke="rgba(147, 26, 35, 1)"></path><path d="M495.25 11.97L510.15 11.97L510.15 26.87L495.25 26.87z" fill="rgba(147, 26, 35, 1)"></path><path d="M1058.64 22.46a24.83 24.83 0 1 0 22.17 44.44z" stroke="rgba(147, 26, 35, 1)"></path><path d="M662.13 472.01 a33.23 33.23 0 1 0 66.46 0 a33.23 33.23 0 1 0 -66.46 0z" fill="rgba(147, 26, 35, 1)"></path><path d="M1303.26 262.3 a51.98 51.98 0 1 0 103.96 0 a51.98 51.98 0 1 0 -103.96 0z" stroke="rgba(147, 26, 35, 1)"></path><path d="M796.88 175.04a51.72 51.72 0 1 0 51.78 89.55z" stroke="rgba(147, 26, 35, 1)"></path><path d="M496.04 368.85a20.6 20.6 0 1 0 15.93-38z" fill="rgba(147, 26, 35, 1)"></path><path d="M1037.75 92.19L1082.37 92.19L1082.37 136.81L1037.75 136.81z" stroke="rgba(147, 26, 35, 1)"></path><path d="M174.73 243.74L209.31 243.74L209.31 243.94L174.73 243.94z" fill="rgba(147, 26, 35, 1)"></path><path d="M977.58 322.12L1023.09 322.12L1023.09 362.42L977.58 362.42z" stroke="rgba(147, 26, 35, 1)"></path><path d="M362.59 391.01L408.35 391.01L408.35 445.14L362.59 445.14z" stroke="rgba(147, 26, 35, 1)"></path><path d="M1410.8 213.13L1441.61 213.13L1441.61 243.94L1410.8 243.94z" stroke="rgba(147, 26, 35, 1)"></path><path d="M952.22 303.29 a40.72 40.72 0 1 0 81.44 0 a40.72 40.72 0 1 0 -81.44 0z" fill="rgba(147, 26, 35, 1)"></path><path d="M294.53 561.62a4.65 4.65 0 1 0-7.74-5.15z" stroke="rgba(147, 26, 35, 1)"></path><path d="M1411.29 359.64L1466.43 359.64L1466.43 414.78L1411.29 414.78z" stroke="rgba(147, 26, 35, 1)"></path><path d="M1142.17 424.14L1182.54 424.14L1182.54 454.01L1142.17 454.01z" fill="rgba(147, 26, 35, 1)"></path><path d="M1013.71 520.84L1045.25 520.84L1045.25 575.36L1013.71 575.36z" fill="rgba(147, 26, 35, 1)"></path></g><defs><mask id="SvgjsMask1005"><rect width="1440" height="560" fill="#ffffff"></rect></mask></defs></svg>